<svg class="svg-icon" viewBox="0 0 20 20">
  <g id="trash">
    <path d="M17.114,3.923h-4.589V2.427c0-0.252-0.207-0.459-0.46-0.459H7.935c-0.252,0-0.459,0.207-0.459,0.459v1.496h-4.59c-0.252,0-0.459,0.205-0.459,0.459c0,0.252,0.207,0.459,0.459,0.459h1.51v12.732c0,0.252,0.207,0.459,0.459,0.459h10.29c0.254,0,0.459-0.207,0.459-0.459V4.841h1.511c0.252,0,0.459-0.207,0.459-0.459C17.573,4.127,17.366,3.923,17.114,3.923M8.394,2.886h3.214v0.918H8.394V2.886z M14.686,17.114H5.314V4.841h9.372V17.114z M12.525,7.306v7.344c0,0.252-0.207,0.459-0.46,0.459s-0.458-0.207-0.458-0.459V7.306c0-0.254,0.205-0.459,0.458-0.459S12.525,7.051,12.525,7.306M8.394,7.306v7.344c0,0.252-0.207,0.459-0.459,0.459s-0.459-0.207-0.459-0.459V7.306c0-0.254,0.207-0.459,0.459-0.459S8.394,7.051,8.394,7.306"></path>
  </g>
  <g id="heart">
    <path d="M9.719,17.073l-6.562-6.51c-0.27-0.268-0.504-0.567-0.696-0.888C1.385,7.89,1.67,5.613,3.155,4.14c0.864-0.856,2.012-1.329,3.233-1.329c1.924,0,3.115,1.12,3.612,1.752c0.499-0.634,1.689-1.752,3.612-1.752c1.221,0,2.369,0.472,3.233,1.329c1.484,1.473,1.771,3.75,0.693,5.537c-0.19,0.32-0.425,0.618-0.695,0.887l-6.562,6.51C10.125,17.229,9.875,17.229,9.719,17.073 M6.388,3.61C5.379,3.61,4.431,4,3.717,4.707C2.495,5.92,2.259,7.794,3.145,9.265c0.158,0.265,0.351,0.51,0.574,0.731L10,16.228l6.281-6.232c0.224-0.221,0.416-0.466,0.573-0.729c0.887-1.472,0.651-3.346-0.571-4.56C15.57,4,14.621,3.61,13.612,3.61c-1.43,0-2.639,0.786-3.268,1.863c-0.154,0.264-0.536,0.264-0.69,0C9.029,4.397,7.82,3.61,6.388,3.61"></path>
  </g>
  <g id="message">
  	<path d="M14.999,8.543c0,0.229-0.188,0.417-0.416,0.417H5.417C5.187,8.959,5,8.772,5,8.543s0.188-0.417,0.417-0.417h9.167C14.812,8.126,14.999,8.314,14.999,8.543 M12.037,10.213H5.417C5.187,10.213,5,10.4,5,10.63c0,0.229,0.188,0.416,0.417,0.416h6.621c0.229,0,0.416-0.188,0.416-0.416C12.453,10.4,12.266,10.213,12.037,10.213 M14.583,6.046H5.417C5.187,6.046,5,6.233,5,6.463c0,0.229,0.188,0.417,0.417,0.417h9.167c0.229,0,0.416-0.188,0.416-0.417C14.999,6.233,14.812,6.046,14.583,6.046 M17.916,3.542v10c0,0.229-0.188,0.417-0.417,0.417H9.373l-2.829,2.796c-0.117,0.116-0.71,0.297-0.71-0.296v-2.5H2.5c-0.229,0-0.417-0.188-0.417-0.417v-10c0-0.229,0.188-0.417,0.417-0.417h15C17.729,3.126,17.916,3.313,17.916,3.542 M17.083,3.959H2.917v9.167H6.25c0.229,0,0.417,0.187,0.417,0.416v1.919l2.242-2.215c0.079-0.077,0.184-0.12,0.294-0.12h7.881V3.959z"></path>
  </g>
  <g id="comments">
    <path d="M17.659,3.681H8.468c-0.211,0-0.383,0.172-0.383,0.383v2.681H2.341c-0.21,0-0.383,0.172-0.383,0.383v6.126c0,0.211,0.172,0.383,0.383,0.383h1.532v2.298c0,0.566,0.554,0.368,0.653,0.27l2.569-2.567h4.437c0.21,0,0.383-0.172,0.383-0.383v-2.681h1.013l2.546,2.567c0.242,0.249,0.652,0.065,0.652-0.27v-2.298h1.533c0.211,0,0.383-0.172,0.383-0.382V4.063C18.042,3.853,17.87,3.681,17.659,3.681 M11.148,12.87H6.937c-0.102,0-0.199,0.04-0.27,0.113l-2.028,2.025v-1.756c0-0.211-0.172-0.383-0.383-0.383H2.724V7.51h5.361v2.68c0,0.21,0.172,0.382,0.383,0.382h2.68V12.87z M17.276,9.807h-1.533c-0.211,0-0.383,0.172-0.383,0.383v1.755L13.356,9.92c-0.07-0.073-0.169-0.113-0.27-0.113H8.851v-5.36h8.425V9.807z"></path>
  </g>
  <g id="comment">
    <path d="M17.211,3.39H2.788c-0.22,0-0.4,0.18-0.4,0.4v9.614c0,0.221,0.181,0.402,0.4,0.402h3.206v2.402c0,0.363,0.429,0.533,0.683,0.285l2.72-2.688h7.814c0.221,0,0.401-0.182,0.401-0.402V3.79C17.612,3.569,17.432,3.39,17.211,3.39M16.811,13.004H9.232c-0.106,0-0.206,0.043-0.282,0.117L6.795,15.25v-1.846c0-0.219-0.18-0.4-0.401-0.4H3.189V4.19h13.622V13.004z"></path>
  </g>
</svg>